<svg width="19" height="19" viewBox="0 0 19 19" fill="none" xmlns="http://www.w3.org/2000/svg">
<path d="M1 3.31818C1 2.70336 1.24424 2.11372 1.67898 1.67898C2.11372 1.24424 2.70336 1 3.31818 1H5.63636C6.25118 1 6.84082 1.24424 7.27557 1.67898C7.71031 2.11372 7.95455 2.70336 7.95455 3.31818V5.63636C7.95455 6.25118 7.71031 6.84082 7.27557 7.27557C6.84082 7.71031 6.25118 7.95455 5.63636 7.95455H3.31818C2.70336 7.95455 2.11372 7.71031 1.67898 7.27557C1.24424 6.84082 1 6.25118 1 5.63636V3.31818ZM1 13.3636C1 12.7488 1.24424 12.1592 1.67898 11.7244C2.11372 11.2897 2.70336 11.0455 3.31818 11.0455H5.63636C6.25118 11.0455 6.84082 11.2897 7.27557 11.7244C7.71031 12.1592 7.95455 12.7488 7.95455 13.3636V15.6818C7.95455 16.2966 7.71031 16.8863 7.27557 17.321C6.84082 17.7558 6.25118 18 5.63636 18H3.31818C2.70336 18 2.11372 17.7558 1.67898 17.321C1.24424 16.8863 1 16.2966 1 15.6818V13.3636ZM11.0455 3.31818C11.0455 2.70336 11.2897 2.11372 11.7244 1.67898C12.1592 1.24424 12.7488 1 13.3636 1H15.6818C16.2966 1 16.8863 1.24424 17.321 1.67898C17.7558 2.11372 18 2.70336 18 3.31818V5.63636C18 6.25118 17.7558 6.84082 17.321 7.27557C16.8863 7.71031 16.2966 7.95455 15.6818 7.95455H13.3636C12.7488 7.95455 12.1592 7.71031 11.7244 7.27557C11.2897 6.84082 11.0455 6.25118 11.0455 5.63636V3.31818ZM11.0455 13.3636C11.0455 12.7488 11.2897 12.1592 11.7244 11.7244C12.1592 11.2897 12.7488 11.0455 13.3636 11.0455H15.6818C16.2966 11.0455 16.8863 11.2897 17.321 11.7244C17.7558 12.1592 18 12.7488 18 13.3636V15.6818C18 16.2966 17.7558 16.8863 17.321 17.321C16.8863 17.7558 16.2966 18 15.6818 18H13.3636C12.7488 18 12.1592 17.7558 11.7244 17.321C11.2897 16.8863 11.0455 16.2966 11.0455 15.6818V13.3636Z" stroke="#FF630B" stroke-width="1.5" stroke-linecap="round" stroke-linejoin="round"/>
</svg>
