<svg width="38" height="12" viewBox="0 0 38 12" fill="none" xmlns="http://www.w3.org/2000/svg">
<rect width="38" height="12" fill="#DADADA"/>
<g clip-path="url(#clip0_0_1)">
<rect width="1440" height="917" transform="translate(-517 -667)" fill="#FAFAFA"/>
<g filter="url(#filter0_d_0_1)">
<rect x="-287" y="-483" width="982" height="470" rx="10" fill="white"/>
</g>
<rect x="-517" y="-667" width="1440" height="917" fill="#0E1015" fill-opacity="0.74"/>
<g filter="url(#filter1_d_0_1)">
<rect x="-145" y="-528" width="696" height="589" rx="10" fill="white"/>
</g>
<g clip-path="url(#clip1_0_1)">
<path d="M19.6527 3.82094C19.631 5.48591 21.1761 6.41497 22.34 6.9674C23.5358 7.53415 23.9375 7.89762 23.9327 8.40451C23.9238 9.18017 22.9789 9.52253 22.0946 9.53583C20.5519 9.55911 19.6549 9.13015 18.9418 8.80571L18.3861 11.3386C19.1015 11.6597 20.4263 11.9397 21.8001 11.952C25.0249 11.952 27.1347 10.4016 27.1461 7.99767C27.1587 4.94677 22.8135 4.77791 22.8432 3.41424C22.8534 3.00075 23.2585 2.5595 24.1462 2.4473C24.5856 2.39063 25.7984 2.34726 27.1736 2.96403L27.7133 0.513425C26.9738 0.25116 26.0233 2.67029e-05 24.84 2.67029e-05C21.8047 2.67029e-05 19.6699 1.57159 19.6527 3.82094ZM32.8994 0.211111C32.3105 0.211111 31.8143 0.545665 31.5928 1.05906L26.9864 11.772H30.2088L30.8501 10.0459H34.7878L35.1598 11.772H38L35.5215 0.211111H32.8994ZM33.3502 3.33415L34.2802 7.6754H31.7333L33.3502 3.33415ZM15.7457 0.211256L13.2056 11.7719H16.2763L18.8152 0.210967H15.7457M11.203 0.210967L8.00687 8.07993L6.71398 1.38928C6.56227 0.642388 5.96318 0.211111 5.29788 0.211111H0.0731797L0 0.546822C1.07261 0.77352 2.29128 1.13916 3.02961 1.53039C3.48145 1.76938 3.6103 1.97829 3.75873 2.5462L6.20751 11.772H9.4525L14.4275 0.211111H11.203" fill="url(#paint0_linear_0_1)"/>
</g>
</g>
<defs>
<filter id="filter0_d_0_1" x="-315" y="-511" width="1038" height="526" filterUnits="userSpaceOnUse" color-interpolation-filters="sRGB">
<feFlood flood-opacity="0" result="BackgroundImageFix"/>
<feColorMatrix in="SourceAlpha" type="matrix" values="0 0 0 0 0 0 0 0 0 0 0 0 0 0 0 0 0 0 127 0" result="hardAlpha"/>
<feMorphology radius="10" operator="dilate" in="SourceAlpha" result="effect1_dropShadow_0_1"/>
<feOffset/>
<feGaussianBlur stdDeviation="9"/>
<feComposite in2="hardAlpha" operator="out"/>
<feColorMatrix type="matrix" values="0 0 0 0 0 0 0 0 0 0 0 0 0 0 0 0 0 0 0.04 0"/>
<feBlend mode="normal" in2="BackgroundImageFix" result="effect1_dropShadow_0_1"/>
<feBlend mode="normal" in="SourceGraphic" in2="effect1_dropShadow_0_1" result="shape"/>
</filter>
<filter id="filter1_d_0_1" x="-173" y="-556" width="752" height="645" filterUnits="userSpaceOnUse" color-interpolation-filters="sRGB">
<feFlood flood-opacity="0" result="BackgroundImageFix"/>
<feColorMatrix in="SourceAlpha" type="matrix" values="0 0 0 0 0 0 0 0 0 0 0 0 0 0 0 0 0 0 127 0" result="hardAlpha"/>
<feMorphology radius="10" operator="dilate" in="SourceAlpha" result="effect1_dropShadow_0_1"/>
<feOffset/>
<feGaussianBlur stdDeviation="9"/>
<feComposite in2="hardAlpha" operator="out"/>
<feColorMatrix type="matrix" values="0 0 0 0 0 0 0 0 0 0 0 0 0 0 0 0 0 0 0.04 0"/>
<feBlend mode="normal" in2="BackgroundImageFix" result="effect1_dropShadow_0_1"/>
<feBlend mode="normal" in="SourceGraphic" in2="effect1_dropShadow_0_1" result="shape"/>
</filter>
<linearGradient id="paint0_linear_0_1" x1="17.4701" y1="12.1918" x2="17.8071" y2="-0.0835953" gradientUnits="userSpaceOnUse">
<stop stop-color="#222357"/>
<stop offset="1" stop-color="#254AA5"/>
</linearGradient>
<clipPath id="clip0_0_1">
<rect width="1440" height="917" fill="white" transform="translate(-517 -667)"/>
</clipPath>
<clipPath id="clip1_0_1">
<rect width="38" height="12" fill="white"/>
</clipPath>
</defs>
</svg>
