<svg width="29" height="18" viewBox="0 0 29 18" fill="none" xmlns="http://www.w3.org/2000/svg">
<g clip-path="url(#clip0_209_99)">
<path d="M5.66928 0H12.8941C13.9027 0 14.5299 0.816413 14.2947 1.82138L10.931 16.1634C10.6936 17.1649 9.68374 17.982 8.67463 17.982H1.45034C0.443271 17.982 -0.18544 17.1649 0.0498455 16.1634L3.41498 1.82138C3.65026 0.816413 4.65949 0 5.66928 0Z" fill="#E21836"/>
<path d="M12.2923 0H20.6008C21.6091 0 21.1545 0.816413 20.9173 1.82138L17.554 16.1634C17.3181 17.1649 17.3916 17.982 16.3812 17.982H8.07277C7.0623 17.982 6.43699 17.1649 6.67431 16.1634L10.0373 1.82138C10.2761 0.816413 11.2833 0 12.2923 0Z" fill="#00447C"/>
<path d="M20.2715 0H27.4963C28.5063 0 29.1336 0.816413 28.8965 1.82138L25.5332 16.1634C25.2958 17.1649 24.2854 17.982 23.2755 17.982H16.054C15.0435 17.982 14.4168 17.1649 14.6535 16.1634L18.0172 1.82138C18.2525 0.816413 19.261 0 20.2715 0Z" fill="#007B84"/>
<path d="M7.55577 4.59636C6.81287 4.60389 6.59345 4.59636 6.52332 4.57993C6.49636 4.70706 5.99498 7.00386 5.99362 7.00577C5.88566 7.47039 5.80716 7.80171 5.54027 8.01557C5.38893 8.13988 5.21209 8.19996 5.00705 8.19996C4.67763 8.19996 4.48562 8.0374 4.45345 7.72926L4.44722 7.62351C4.44722 7.62351 4.54759 7.00104 4.54759 6.99756C4.54759 6.99756 5.07378 4.9045 5.16803 4.62786C5.17301 4.61211 5.17437 4.60389 5.17562 4.59636C4.15144 4.60536 3.96985 4.59636 3.95739 4.57993C3.95048 4.60243 3.92511 4.73226 3.92511 4.73226L3.38781 7.09138L3.34171 7.29141L3.25244 7.94582C3.25244 8.13988 3.29084 8.29839 3.3672 8.43238C3.612 8.85718 4.31026 8.92086 4.70527 8.92086C5.21413 8.92086 5.69161 8.81342 6.01424 8.61733C6.57419 8.28883 6.72077 7.77516 6.85139 7.31863L6.91199 7.08452C6.91199 7.08452 7.45404 4.91068 7.54614 4.62786C7.54954 4.61211 7.55101 4.60389 7.55577 4.59636ZM9.39999 6.35001C9.26937 6.35001 9.03069 6.38151 8.81614 6.48591C8.73831 6.52562 8.66468 6.57141 8.58697 6.61708L8.65709 6.36576L8.61869 6.32346C8.16386 6.41492 8.06202 6.42718 7.64186 6.48591L7.60675 6.50919C7.55792 6.91082 7.51453 7.21288 7.33374 8.00252C7.26446 8.29461 7.19377 8.58636 7.12168 8.87777L7.14093 8.91456C7.57163 8.89206 7.70224 8.89206 8.07652 8.89813L8.10677 8.86551C8.15435 8.62363 8.16047 8.56693 8.26582 8.07699C8.31532 7.84479 8.41852 7.3345 8.46938 7.15281C8.56284 7.10972 8.65516 7.06742 8.74318 7.06742C8.95298 7.06742 8.92738 7.24911 8.91934 7.32156C8.91027 7.44306 8.83392 7.84007 8.75553 8.18094L8.7032 8.40088C8.66683 8.56345 8.62684 8.72128 8.59037 8.88238L8.60623 8.91456C9.03058 8.89206 9.16006 8.89206 9.52244 8.89813L9.56504 8.86551C9.63063 8.48773 9.64977 8.38659 9.766 7.83658L9.82445 7.58391C9.93807 7.08925 9.99517 6.83848 9.90919 6.63418C9.81834 6.40524 9.60027 6.35001 9.4001 6.35001H9.39999ZM11.4603 6.86784C11.2347 6.91093 11.0908 6.93951 10.9479 6.95807C10.8061 6.98057 10.6678 7.00116 10.4499 7.03119L10.4325 7.04672L10.4167 7.05909C10.394 7.22042 10.3782 7.35981 10.348 7.52372C10.3226 7.69314 10.2832 7.88574 10.2194 8.16238C10.1698 8.37411 10.1444 8.44791 10.1162 8.52238C10.0886 8.59697 10.0584 8.66942 10.0028 8.87766L10.0158 8.89689L10.0267 8.91456C10.2305 8.90499 10.3638 8.89813 10.5007 8.89689C10.6376 8.89206 10.7794 8.89689 10.9987 8.89802L11.018 8.88261L11.0386 8.8654C11.0703 8.67752 11.075 8.62701 11.0943 8.53543C11.1136 8.43711 11.1467 8.30109 11.2279 7.93761C11.2663 7.76694 11.309 7.59673 11.3489 7.42258C11.3902 7.24911 11.4335 7.07833 11.4747 6.90756L11.4686 6.88697L11.4603 6.86784ZM11.4651 6.16967C11.2601 6.04952 10.9004 6.08766 10.6582 6.25359C10.4168 6.41627 10.3893 6.64712 10.5936 6.76884C10.795 6.88562 11.1562 6.85086 11.3962 6.68346C11.6372 6.51729 11.6673 6.28858 11.4651 6.16967ZM12.7047 8.95224C13.1195 8.95224 13.5446 8.83862 13.8646 8.50191C14.1108 8.22876 14.2237 7.82229 14.2628 7.65489C14.39 7.10016 14.2909 6.84118 14.1665 6.68346C13.9773 6.44293 13.6431 6.36576 13.2963 6.36576C13.0879 6.36576 12.5912 6.38623 12.2032 6.74151C11.9246 6.99767 11.7959 7.34541 11.7183 7.67863C11.6399 8.01838 11.5497 8.62971 12.1159 8.8573C12.2906 8.93177 12.5424 8.95224 12.7047 8.95224ZM12.6723 7.70406C12.768 7.28398 12.8809 6.93141 13.169 6.93141C13.3947 6.93141 13.4112 7.19376 13.3108 7.61518C13.2928 7.70878 13.2104 8.05663 13.099 8.20468C13.021 8.31403 12.929 8.38029 12.8271 8.38029C12.7968 8.38029 12.6167 8.38029 12.6139 8.11468C12.6125 7.98351 12.6395 7.84952 12.6723 7.70406ZM15.2994 8.89824L15.3318 8.86551C15.3778 8.62363 15.3854 8.56682 15.4872 8.07711C15.5381 7.84479 15.6435 7.33461 15.6929 7.15281C15.7866 7.10961 15.8773 7.06731 15.9681 7.06731C16.1765 7.06731 16.1511 7.249 16.1428 7.32144C16.1352 7.44317 16.0588 7.83996 15.979 8.18083L15.9295 8.40077C15.8917 8.56344 15.8504 8.72117 15.814 8.88249L15.8298 8.91467C16.2558 8.89217 16.3802 8.89217 16.7447 8.89824L16.7888 8.86551C16.8526 8.48751 16.87 8.38648 16.9897 7.83658L17.0467 7.5838C17.1609 7.08913 17.2187 6.83859 17.134 6.63429C17.0406 6.40536 16.8212 6.35012 16.6237 6.35012C16.4929 6.35012 16.2529 6.38139 16.0396 6.48602C15.9634 6.52562 15.8869 6.57129 15.8119 6.61719L15.8773 6.36587L15.8422 6.32334C15.3875 6.41492 15.2837 6.42718 14.864 6.48602L14.8317 6.50919C14.7808 6.91093 14.7395 7.21277 14.5587 8.00263C14.4894 8.29466 14.4187 8.58638 14.3468 8.87777L14.366 8.91467C14.7973 8.89217 14.926 8.89217 15.2994 8.89824ZM18.428 8.91456C18.4548 8.78473 18.6138 8.01568 18.6152 8.01568C18.6152 8.01568 18.7506 7.45127 18.7589 7.43079C18.7589 7.43079 18.8015 7.37207 18.8441 7.34878H18.9068C19.4983 7.34878 20.1663 7.34878 20.6898 6.96628C21.0461 6.70393 21.2896 6.31659 21.3983 5.84578C21.4265 5.73036 21.4472 5.59311 21.4472 5.45586C21.4472 5.27552 21.4109 5.09709 21.3055 4.95771C21.0385 4.58679 20.5069 4.57993 19.8931 4.57712L19.5907 4.57993C18.805 4.58961 18.49 4.58679 18.3605 4.57104C18.3497 4.62786 18.329 4.72899 18.329 4.72899C18.329 4.72899 18.0477 6.02421 18.0477 6.02623L17.3425 8.90983C18.0284 8.90162 18.3097 8.90162 18.428 8.91456ZM18.9495 6.61371C18.9495 6.61371 19.2485 5.32108 19.2472 5.32603L19.2569 5.25966L19.2611 5.20926L19.3807 5.22141C19.3807 5.22141 19.9978 5.27406 20.0122 5.27541C20.2557 5.36901 20.3561 5.61021 20.2861 5.92498C20.2221 6.21276 20.0343 6.45463 19.7927 6.57141C19.5939 6.67041 19.3504 6.67862 19.0995 6.67862H18.9371L18.9495 6.61371ZM20.8123 7.72802C20.7332 8.06271 20.6424 8.67414 21.2057 8.89206C21.3854 8.96788 21.5463 8.9905 21.7098 8.98228C21.8827 8.97306 22.0427 8.88699 22.191 8.76313L22.1508 8.91602L22.1764 8.94864C22.5816 8.93177 22.7074 8.93177 23.1463 8.93514L23.1862 8.90499C23.2502 8.53071 23.3107 8.16733 23.4773 7.45127C23.5584 7.10837 23.6394 6.76873 23.7227 6.42718L23.7097 6.38961C23.2564 6.47297 23.1353 6.49086 22.6992 6.55217L22.6661 6.57894C22.6617 6.61382 22.6571 6.64723 22.6529 6.68064C22.5851 6.57186 22.4868 6.47893 22.3352 6.42111C22.1413 6.34528 21.6859 6.44293 21.2945 6.79686C21.0194 7.04964 20.8873 7.39592 20.8123 7.72802ZM21.7643 7.74849C21.8614 7.33584 21.9727 6.98687 22.2616 6.98687C22.4442 6.98687 22.5404 7.15416 22.5208 7.43957C22.504 7.51673 22.4867 7.59376 22.4687 7.67064C22.4398 7.79327 22.4085 7.91477 22.3781 8.03649C22.347 8.11974 22.3109 8.19827 22.2713 8.25058C22.197 8.35521 22.0202 8.42001 21.9184 8.42001C21.8895 8.42001 21.7113 8.42001 21.7052 8.15901C21.7037 8.02918 21.7307 7.89531 21.7643 7.74838V7.74849ZM26.7358 6.38623L26.7006 6.34652C26.2522 6.43674 26.1709 6.45114 25.7589 6.50638L25.7286 6.53642C25.7272 6.54137 25.726 6.54879 25.7238 6.55566L25.7225 6.54891C25.4157 7.25181 25.4246 7.10016 25.175 7.65343C25.1735 7.62823 25.1735 7.61259 25.1721 7.58582L25.1096 6.38623L25.0704 6.34652C24.6005 6.43674 24.5894 6.45114 24.1555 6.50638L24.1217 6.53642C24.1169 6.55082 24.1169 6.56657 24.1141 6.58367L24.1169 6.58986C24.1712 6.86503 24.1582 6.80361 24.2125 7.23808C24.2379 7.45127 24.2718 7.66569 24.297 7.87629C24.3399 8.22864 24.3639 8.40212 24.4161 8.93998C24.1232 9.42013 24.0537 9.60193 23.7715 10.0234L23.7736 10.0275L23.5749 10.3396C23.5522 10.3724 23.5316 10.3949 23.5027 10.4046C23.471 10.4201 23.4298 10.423 23.3725 10.423H23.2624L23.0989 10.9634L23.6602 10.973C23.9896 10.9716 24.1967 10.8186 24.3081 10.613L24.6611 10.0123H24.6555L24.6926 9.97003C24.9301 9.46254 26.7358 6.38623 26.7358 6.38623ZM20.8123 13.4836H20.5742L21.4555 10.589H21.7478L21.8406 10.2909L21.8495 10.6224C21.8386 10.8274 22.0009 11.0091 22.4274 10.979H22.9208L23.0905 10.4217H22.9049C22.7982 10.4217 22.7486 10.3949 22.7548 10.3376L22.7459 10.0002H21.8325V10.002C21.5372 10.0081 20.6552 10.0301 20.4766 10.0774C20.2606 10.1325 20.0329 10.2953 20.0329 10.2953L20.1224 9.9967H19.2679L19.0898 10.589L18.1968 13.5278H18.0235L17.8536 14.0812H19.5554L19.4984 14.2657H20.337L20.3927 14.0812H20.6279L20.8123 13.4836ZM20.114 11.1772C19.9772 11.2147 19.7226 11.3288 19.7226 11.3288L19.9491 10.589H20.6279L20.4642 11.128C20.4642 11.128 20.2544 11.1404 20.1141 11.1772H20.114ZM20.127 12.234C20.127 12.234 19.9138 12.2606 19.7735 12.292C19.6353 12.3337 19.376 12.4648 19.376 12.4648L19.6099 11.695H20.2922L20.127 12.234ZM19.7466 13.4904H19.0657L19.2632 12.8407H19.9419L19.7466 13.4904ZM21.3866 11.695H22.3682L22.2272 12.1487H21.2326L21.0833 12.6446H21.9536L21.2945 13.5661C21.2484 13.6338 21.2071 13.6578 21.1611 13.6768C21.115 13.7001 21.0544 13.7274 20.9844 13.7274H20.7428L20.577 14.2706H21.2084C21.5367 14.2706 21.7307 14.1223 21.8737 13.9277L22.3257 13.3134L22.4227 13.9371C22.4433 14.0539 22.5278 14.1223 22.585 14.1488C22.6482 14.1803 22.7136 14.2343 22.8059 14.2424C22.9048 14.2466 22.9763 14.25 23.0239 14.25H23.3343L23.5205 13.642H23.3982C23.3279 13.642 23.2068 13.6303 23.1863 13.6085C23.1656 13.5818 23.1656 13.541 23.1546 13.4787L23.056 12.8536H22.653L22.8298 12.6446H23.8225L23.9752 12.1487H23.0562L23.1992 11.695H24.1156L24.2855 11.1355H21.5538L21.3866 11.695ZM13.0961 13.6167L13.3252 12.8598H14.2669L14.4389 12.2969H13.4964L13.6402 11.831H14.5612L14.7319 11.2858H12.4274L12.2603 11.831H12.7839L12.6442 12.2968H12.1193L11.9453 12.8694H12.4687L12.1633 13.8709C12.1221 14.0034 12.1826 14.0539 12.221 14.1155C12.2603 14.1755 12.3001 14.2152 12.3896 14.2377C12.4819 14.2582 12.5451 14.2705 12.631 14.2705H13.6926L13.8817 13.6468L13.4112 13.711C13.3203 13.711 13.0686 13.7002 13.0961 13.6167ZM13.2041 9.99332L12.9655 10.4216C12.9145 10.5151 12.8684 10.5733 12.8271 10.5999C12.7906 10.6224 12.7183 10.632 12.6138 10.632H12.4893L12.3229 11.1799H12.7363C12.9353 11.1799 13.0879 11.1075 13.1608 11.0713C13.2392 11.0297 13.2598 11.0534 13.3203 10.9954L13.46 10.8752H14.7512L14.9226 10.3048H13.9773L14.1424 9.99321H13.2041V9.99332ZM15.1103 13.6277C15.0883 13.5962 15.1042 13.5408 15.1378 13.4254L15.4907 12.2654H16.7462C16.9291 12.2628 17.0611 12.2606 17.1472 12.2546C17.2394 12.2449 17.3398 12.2122 17.4491 12.1534C17.562 12.0919 17.6198 12.027 17.6685 11.9525C17.7229 11.8783 17.8103 11.7155 17.8853 11.4647L18.3289 9.9967L17.0262 10.0042C17.0262 10.0042 16.625 10.063 16.4483 10.128C16.2702 10.2003 16.0155 10.4025 16.0155 10.4025L16.1331 10.0001H15.3283L14.2016 13.711C14.1617 13.855 14.1348 13.9596 14.1287 14.0225C14.1266 14.0901 14.2147 14.1572 14.2718 14.2077C14.3392 14.2582 14.4389 14.25 14.5345 14.2582C14.6351 14.2657 14.778 14.2705 14.9755 14.2705H15.594L15.7837 13.6338L15.2301 13.6858C15.1709 13.6858 15.1282 13.6543 15.1103 13.6277ZM15.7184 11.4819H17.037L16.9531 11.7428C16.9415 11.7489 16.9133 11.7299 16.779 11.7456H15.6371L15.7184 11.4819ZM15.9825 10.6067H17.3123L17.2166 10.921C17.2166 10.921 16.5899 10.9149 16.4896 10.9333C16.0478 11.0092 15.7898 11.2435 15.7898 11.2435L15.9825 10.6068V10.6067ZM16.9828 12.6166C16.9718 12.6556 16.9545 12.6794 16.9305 12.6973C16.9036 12.7144 16.8602 12.7204 16.7957 12.7204H16.6078L16.6189 12.4027H15.8373L15.8056 13.9562C15.8045 14.0683 15.8153 14.1332 15.8979 14.1852C15.9806 14.25 16.235 14.2583 16.5776 14.2583H17.0673L17.244 13.6767L16.8178 13.7L16.6759 13.7082C16.6567 13.7 16.6381 13.6924 16.6175 13.6721C16.5996 13.6544 16.5692 13.6652 16.5742 13.5532L16.5776 13.1549L17.0246 13.1366C17.2661 13.1366 17.3693 13.0585 17.4573 12.9842C17.5413 12.913 17.5688 12.8312 17.6005 12.7204L17.6755 12.3679H17.0611L16.9827 12.6165L16.9828 12.6166Z" fill="#FEFEFE"/>
</g>
<defs>
<clipPath id="clip0_209_99">
<rect width="29" height="18" fill="white"/>
</clipPath>
</defs>
</svg>
