<svg width="22" height="17" viewBox="0 0 22 17" fill="none" xmlns="http://www.w3.org/2000/svg">
<g clip-path="url(#clip0_209_92)">
<path d="M4.352 16.9565V15.6522C4.352 15.1521 4.08794 14.8261 3.63534 14.8261C3.40908 14.8261 3.16392 14.913 2.99418 15.1957C2.86224 14.9565 2.67369 14.8261 2.39082 14.8261C2.20219 14.8261 2.01372 14.8912 1.8628 15.1304V14.8696H1.4668V16.9565H1.8628V15.8043C1.8628 15.4348 2.03253 15.2608 2.29659 15.2608C2.56047 15.2608 2.69259 15.4565 2.69259 15.8043V16.9565H3.08859V15.8043C3.08859 15.4348 3.27705 15.2608 3.52221 15.2608C3.78626 15.2608 3.91821 15.4565 3.91821 15.8043V16.9565H4.352ZM10.2165 14.8696H9.5754V14.2391H9.1794V14.8696H8.82111V15.2825H9.17931V16.2391C9.17931 16.7174 9.34905 17 9.80166 17C9.9714 17 10.1599 16.9348 10.292 16.8479L10.1788 16.4565C10.0656 16.5435 9.93369 16.5652 9.83937 16.5652C9.65082 16.5652 9.5754 16.4348 9.5754 16.2173V15.2825H10.2165V14.8696ZM13.5731 14.826C13.3468 14.826 13.196 14.9565 13.1017 15.1304V14.8696H12.7057V16.9565H13.1017V15.7826C13.1017 15.4348 13.2336 15.2391 13.4788 15.2391C13.5542 15.2391 13.6485 15.2609 13.7239 15.2826L13.8371 14.8479C13.7616 14.8261 13.6485 14.8261 13.5731 14.8261V14.826ZM8.50053 15.0435C8.3119 14.8912 8.04793 14.8261 7.76506 14.8261C7.31254 14.8261 7.01086 15.0869 7.01086 15.5C7.01086 15.8479 7.23712 16.0435 7.63312 16.1087L7.82167 16.1305C8.02911 16.1739 8.14225 16.2391 8.14225 16.3479C8.14225 16.5 7.99141 16.6087 7.72735 16.6087C7.46338 16.6087 7.25593 16.5 7.1239 16.3913L6.93535 16.7391C7.1428 16.913 7.42567 17 7.70845 17C8.23648 17 8.53824 16.7174 8.53824 16.3261C8.53824 15.9565 8.29308 15.7608 7.9159 15.6957L7.72735 15.6739C7.55761 15.6521 7.42567 15.6087 7.42567 15.4783C7.42567 15.3261 7.55761 15.2391 7.76506 15.2391C7.99141 15.2391 8.21766 15.3478 8.33079 15.413L8.50053 15.0435ZM19.0228 14.8261C18.7965 14.8261 18.6456 14.9565 18.5513 15.1304V14.8696H18.1553V16.9565H18.5513V15.7826C18.5513 15.4348 18.6834 15.2391 18.9284 15.2391C19.0039 15.2391 19.0983 15.2609 19.1737 15.2826L19.2868 14.8479C19.2114 14.8261 19.0983 14.8261 19.0228 14.8261ZM13.9691 15.913C13.9691 16.5435 14.3462 17 14.9308 17C15.1948 17 15.3833 16.9348 15.5719 16.7609L15.3833 16.3913C15.2325 16.5218 15.0817 16.5869 14.9119 16.5869C14.5913 16.5869 14.3651 16.3261 14.3651 15.913C14.3651 15.5218 14.5913 15.2608 14.9119 15.2391C15.0817 15.2391 15.2325 15.3043 15.3833 15.4348L15.5719 15.0652C15.3833 14.8912 15.1948 14.8261 14.9308 14.8261C14.3462 14.8261 13.9691 15.2826 13.9691 15.913ZM17.6274 15.913V14.8696H17.2314V15.1304C17.0994 14.9348 16.9108 14.8261 16.6657 14.8261C16.1565 14.8261 15.7605 15.2826 15.7605 15.913C15.7605 16.5435 16.1565 17 16.6657 17C16.9296 17 17.1183 16.8913 17.2314 16.6957V16.9565H17.6274V15.913ZM16.1753 15.913C16.1753 15.5435 16.3828 15.2391 16.7222 15.2391C17.0428 15.2391 17.2691 15.5218 17.2691 15.913C17.2691 16.2826 17.0428 16.5869 16.7222 16.5869C16.3828 16.5651 16.1753 16.2826 16.1753 15.913ZM11.4423 14.8261C10.9142 14.8261 10.537 15.2608 10.537 15.913C10.537 16.5652 10.9141 17 11.4611 17C11.725 17 11.9891 16.913 12.1965 16.7174L12.0079 16.3913C11.8571 16.5218 11.6685 16.6087 11.48 16.6087C11.2348 16.6087 10.9897 16.4783 10.933 16.1086H12.272V15.9348C12.2909 15.2608 11.9514 14.8261 11.4422 14.8261H11.4423ZM11.4423 15.2174C11.6873 15.2174 11.8572 15.3913 11.8948 15.7174H10.9519C10.9897 15.4348 11.1594 15.2174 11.4423 15.2174ZM21.2668 15.913V14.0435H20.8708V15.1304C20.7388 14.9348 20.5502 14.8261 20.3051 14.8261C19.7959 14.8261 19.3999 15.2826 19.3999 15.913C19.3999 16.5435 19.7959 17 20.3051 17C20.5691 17 20.7577 16.8913 20.8708 16.6957V16.9565H21.2668V15.913ZM19.8148 15.913C19.8148 15.5435 20.0222 15.2391 20.3617 15.2391C20.6822 15.2391 20.9085 15.5218 20.9085 15.913C20.9085 16.2826 20.6822 16.5869 20.3617 16.5869C20.0222 16.5651 19.8148 16.2826 19.8148 15.913ZM6.57706 15.913V14.8696H6.18107V15.1304C6.04904 14.9348 5.86049 14.8261 5.61533 14.8261C5.1062 14.8261 4.7102 15.2826 4.7102 15.913C4.7102 16.5435 5.1062 17 5.61533 17C5.87939 17 6.06794 16.8913 6.18107 16.6957V16.9565H6.57706V15.913ZM5.1062 15.913C5.1062 15.5435 5.31365 15.2391 5.65304 15.2391C5.97362 15.2391 6.19996 15.5218 6.19996 15.913C6.19996 16.2826 5.97362 16.5869 5.65304 16.5869C5.31365 16.5651 5.1062 16.2826 5.1062 15.913Z" fill="black"/>
<path d="M8.06689 1.47827H13.9336V11.8261H8.06689V1.47827Z" fill="#FF5F00"/>
<path d="M8.41072 6.65217C8.41072 4.52721 9.43131 2.64239 11 1.42279C9.84716 0.535851 8.39187 0 6.80424 0C3.04292 0 0 2.97496 0 6.65217C0 10.3293 3.04292 13.3043 6.80415 13.3043C8.39178 13.3043 9.84708 12.7685 11 11.8815C9.43131 10.6804 8.41072 8.77714 8.41072 6.65217Z" fill="#EB001B"/>
<path d="M21.9999 6.65217C21.9999 10.3293 18.957 13.3043 15.1958 13.3043C13.6082 13.3043 12.1529 12.7685 11 11.8815C12.5876 10.662 13.5893 8.77714 13.5893 6.65217C13.5893 4.52721 12.5687 2.64239 11 1.42279C12.1528 0.535851 13.6082 0 15.1958 0C18.957 0 22 2.99347 22 6.65217H21.9999Z" fill="#F79E1B"/>
</g>
<defs>
<clipPath id="clip0_209_92">
<rect width="22" height="17" fill="white"/>
</clipPath>
</defs>
</svg>
