<svg width="19" height="19" viewBox="0 0 19 19" fill="none" xmlns="http://www.w3.org/2000/svg">
<path d="M1 2.42991C1 2.05067 1.15207 1.68697 1.42276 1.41881C1.69345 1.15065 2.06058 1 2.4434 1H3.88679C4.2696 1 4.63674 1.15065 4.90743 1.41881C5.17812 1.68697 5.33019 2.05067 5.33019 2.42991V3.85981C5.33019 4.23905 5.17812 4.60275 4.90743 4.87091C4.63674 5.13907 4.2696 5.28972 3.88679 5.28972H2.4434C2.06058 5.28972 1.69345 5.13907 1.42276 4.87091C1.15207 4.60275 1 4.23905 1 3.85981V2.42991ZM7.25472 2.42991C7.25472 2.05067 7.40679 1.68697 7.67748 1.41881C7.94817 1.15065 8.3153 1 8.69811 1H10.1415C10.5243 1 10.8915 1.15065 11.1621 1.41881C11.4328 1.68697 11.5849 2.05067 11.5849 2.42991V3.85981C11.5849 4.23905 11.4328 4.60275 11.1621 4.87091C10.8915 5.13907 10.5243 5.28972 10.1415 5.28972H8.69811C8.3153 5.28972 7.94817 5.13907 7.67748 4.87091C7.40679 4.60275 7.25472 4.23905 7.25472 3.85981V2.42991Z" stroke="#494949" stroke-linecap="round" stroke-linejoin="round"/>
<path d="M14.0926 1.41881C13.8219 1.68697 13.6698 2.05067 13.6698 2.42991V3.85981C13.6698 4.23905 13.8219 4.60275 14.0926 4.87091C14.3633 5.13907 14.7304 5.28972 15.1132 5.28972H16.5566C16.9394 5.28972 17.3065 5.13907 17.5772 4.87091C17.8479 4.60275 18 4.23905 18 3.85981V2.42991C18 2.05067 17.8479 1.68697 17.5772 1.41881C17.3065 1.15065 16.9394 1 16.5566 1H15.1132C14.7304 1 14.3633 1.15065 14.0926 1.41881Z" stroke="#494949" stroke-linecap="round" stroke-linejoin="round"/>
<path d="M14.0926 7.77395C13.8219 8.04211 13.6698 8.40581 13.6698 8.78505V10.215C13.6698 10.5942 13.8219 10.9579 14.0926 11.226C14.3633 11.4942 14.7304 11.6449 15.1132 11.6449H16.5566C16.9394 11.6449 17.3065 11.4942 17.5772 11.226C17.8479 10.9579 18 10.5942 18 10.215V8.78505C18 8.40581 17.8479 8.04211 17.5772 7.77395C17.3065 7.50579 16.9394 7.35514 16.5566 7.35514H15.1132C14.7304 7.35514 14.3633 7.50579 14.0926 7.77395Z" stroke="#494949" stroke-linecap="round" stroke-linejoin="round"/>
<path d="M14.0926 14.1291C13.8219 14.3972 13.6698 14.761 13.6698 15.1402V16.5701C13.6698 16.9493 13.8219 17.313 14.0926 17.5812C14.3633 17.8493 14.7304 18 15.1132 18H16.5566C16.9394 18 17.3065 17.8493 17.5772 17.5812C17.8479 17.313 18 16.9493 18 16.5701V15.1402C18 14.761 17.8479 14.3972 17.5772 14.1291C17.3065 13.8609 16.9394 13.7103 16.5566 13.7103H15.1132C14.7304 13.7103 14.3633 13.8609 14.0926 14.1291Z" stroke="#494949" stroke-linecap="round" stroke-linejoin="round"/>
</svg>
