<svg width="12" height="12" viewBox="0 0 12 12" fill="none" xmlns="http://www.w3.org/2000/svg">
<path d="M6 3.3512L6.71577 5.70253H8.86309L7.13458 6.92733L7.84273 9.20305L6 7.81191L4.15727 9.20305L4.86542 6.92733L3.13691 5.70253H5.28423L6 3.3512ZM4.15727 4.19042H0.761154C0.0225372 4.19042 -0.282047 5.13549 0.319507 5.55888L3.09122 7.52461L2.00233 11.01C1.78151 11.7131 2.60389 12.2802 3.19021 11.8341L6 9.71716L8.80979 11.8417C9.39611 12.2877 10.2185 11.7207 9.99767 11.0176L8.90878 7.53217L11.6805 5.56644C12.282 5.13549 11.9775 4.19798 11.2388 4.19798H7.84273L6.72339 0.538687C6.50256 -0.179562 5.48221 -0.179562 5.269 0.538687L4.15727 4.19042Z" fill="#494949"/>
</svg>
